<?xml version="1.0" standalone="no"?>
<!DOCTYPE svg PUBLIC "-//W3C//DTD SVG 20010904//EN"
 "http://www.w3.org/TR/2001/REC-SVG-20010904/DTD/svg10.dtd">
<svg version="1.0" xmlns="http://www.w3.org/2000/svg"
 width="565.000000pt" height="266.000000pt" viewBox="0 0 565.000000 266.000000"
 preserveAspectRatio="xMidYMid meet">

<g transform="translate(0.000000,266.000000) scale(0.100000,-0.100000)"
fill="#000000" stroke="none">
<path d="M0 1330 l0 -1330 2825 0 2825 0 0 1330 0 1330 -2825 0 -2825 0 0
-1330z m5422 1169 c21 -5 42 -18 48 -29 7 -12 10 -399 10 -1129 l0 -1110 -26
-20 -27 -21 -2617 0 -2617 0 -27 21 -26 20 0 1113 c0 874 3 1116 13 1129 6 10
26 21 42 26 44 14 5180 14 5227 0z"/>
<path d="M312 2108 c-17 -17 -17 -1719 0 -1736 9 -9 199 -12 795 -12 l783 0 0
43 c0 63 10 86 41 102 42 22 1386 22 1428 0 35 -17 41 -32 41 -96 l0 -49 948
0 c724 0 951 3 960 12 17 17 17 1719 0 1736 -9 9 -236 12 -960 12 l-948 0 -1
-85 c-1 -47 -2 -88 -3 -92 -4 -18 -23 -41 -43 -52 -31 -16 -1385 -16 -1416 1
-40 21 -46 40 -47 136 l0 92 -783 0 c-596 0 -786 -3 -795 -12z m3059 -317 c22
-18 24 -27 24 -106 0 -138 79 -125 -750 -125 -829 0 -750 -13 -750 125 0 138
-79 125 750 125 677 0 704 -1 726 -19z m-2133 -358 l3 -153 150 0 150 0 -3
-142 -3 -143 -147 -3 -148 -3 0 -149 0 -150 -145 0 -145 0 0 150 0 149 -147 3
-148 3 -3 142 -3 142 148 3 148 3 3 140 c1 77 4 146 7 153 3 10 38 12 142 10
l138 -3 3 -152z m2136 28 c14 -15 18 -38 18 -99 0 -100 -9 -119 -65 -127 -23
-3 -347 -5 -719 -3 -586 3 -679 5 -692 18 -9 10 -16 44 -19 96 -4 78 3 110 27
126 6 4 331 8 722 8 688 0 711 -1 728 -19z m794 -318 c4 -10 7 -136 7 -281 0
-223 -2 -264 -15 -272 -8 -6 -131 -10 -282 -10 -254 0 -268 1 -278 19 -6 12
-10 117 -10 271 0 154 4 259 10 271 10 18 24 19 286 19 252 0 275 -1 282 -17z
m690 5 c17 -17 17 -539 0 -556 -17 -17 -539 -17 -556 0 -9 9 -12 86 -12 283 0
150 3 275 7 278 3 4 128 7 278 7 197 0 274 -3 283 -12z m-1520 -9 c47 -16 54
-56 50 -296 -3 -201 -3 -205 -27 -224 -22 -18 -49 -19 -717 -19 -681 0 -694 0
-714 20 -19 19 -20 33 -20 253 0 127 4 237 8 244 4 7 19 16 32 22 36 14 1347
14 1388 0z"/>
<path d="M3795 1080 c-144 -65 -181 -256 -71 -366 75 -75 188 -90 274 -37 130
80 147 265 36 365 -61 54 -166 71 -239 38z"/>
<path d="M4481 1074 c-152 -76 -170 -284 -35 -383 118 -87 271 -47 339 87 26
54 22 153 -9 207 -62 105 -187 142 -295 89z"/>
<path d="M2122 927 c-37 -39 -28 -98 19 -122 40 -21 298 -21 338 0 45 23 51
84 13 128 -13 15 -36 17 -182 17 -161 0 -167 -1 -188 -23z"/>
<path d="M2837 939 c-46 -27 -40 -115 9 -138 39 -17 298 -15 333 4 46 23 57
89 21 125 -18 18 -33 20 -182 20 -95 0 -171 -5 -181 -11z"/>
</g>
</svg>
